# xmcd CD database file
#
# Track frame offsets:
#	150
#	18715
#	34297
#	57817
#	71212
#	102970
#	123115
#	137370
#	164002
#	195787
#	210837
#	234192
#
# Disc length: 3544 seconds
#
# Revision: 1
# Processed by: cddbd v1.5.1PL2 Copyright (c) Steve Scherf et al.
# Submitted via: CDex 1.51
#
DISCID=990dd60c
DTITLE=Micheli - Bresson - Richardeau - Nadette
DYEAR=2004
DGENRE=Jazz
TTITLE0=Nadette
TTITLE1=B Minor Waltz
TTITLE2=Beautiful Love
TTITLE3=BMJT N°1
TTITLE4=Cecile
TTITLE5=Automne à Fort-Mahon
TTITLE6=Funkallero
TTITLE7=Like Someone In Love
TTITLE8=My Romance
TTITLE9=We Will Meet Again
TTITLE10=Arcius
TTITLE11=Letter To Evan
EXTD=YEAR: 2004
EXTT0=
EXTT1=
EXTT2=
EXTT3=
EXTT4=
EXTT5=
EXTT6=
EXTT7=
EXTT8=
EXTT9=
EXTT10=
EXTT11=
PLAYORDER=
